<?xml version="1.0" standalone="no"?>
<!DOCTYPE svg PUBLIC "-//W3C//DTD SVG 20010904//EN"
 "http://www.w3.org/TR/2001/REC-SVG-20010904/DTD/svg10.dtd">
<svg version="1.0" xmlns="http://www.w3.org/2000/svg"
 width="400.000000pt" height="400.000000pt" viewBox="0 0 300.000000 300.000000"
 preserveAspectRatio="xMidYMid meet">

<g transform="translate(0.000000,300.000000) scale(0.100000,-0.100000)"
fill="#5B06E5" stroke="none">
<path d="M826 2314 c-11 -28 4 -34 82 -34 l77 0 73 -185 74 -185 -46 -51 c-25
-28 -46 -55 -46 -60 0 -5 -8 -9 -17 -9 -54 0 -134 -103 -104 -133 13 -13 21
-6 53 52 21 39 61 50 89 25 18 -17 20 -26 15 -76 -7 -62 2 -74 28 -36 23 32
20 100 -4 131 -27 33 -26 38 15 77 l34 33 21 -49 c12 -27 28 -64 35 -81 9 -22
21 -33 34 -33 26 0 26 -7 2 -61 -12 -25 -35 -54 -57 -69 -58 -39 -79 -74 -78
-129 1 -57 28 -101 78 -125 29 -14 78 -16 335 -16 277 0 305 2 339 19 48 25
74 70 74 128 0 50 -18 82 -66 117 -25 19 -44 21 -207 24 -98 2 -179 7 -179 11
0 4 7 28 16 54 l16 47 172 0 c201 0 204 1 237 91 12 33 26 62 31 65 12 7 56
-33 63 -57 3 -10 -1 -29 -10 -43 -21 -32 -17 -131 5 -131 11 0 16 14 18 51 4
62 27 90 67 80 20 -5 28 -16 37 -51 12 -46 26 -59 48 -45 10 6 9 17 -5 54 -20
52 -56 86 -91 86 -14 0 -28 9 -35 23 -6 12 -27 38 -46 58 l-34 36 47 123 c45
115 47 124 33 149 l-15 26 -324 5 c-179 3 -325 7 -326 8 0 1 -11 25 -24 52
l-23 50 -253 0 c-221 0 -253 -2 -258 -16z m502 -58 c6 -13 8 -27 5 -30 -4 -3
-66 -6 -139 -6 -126 0 -134 1 -148 22 -9 12 -16 26 -16 30 0 5 65 8 143 8 142
0 144 0 155 -24z m180 -88 c9 -9 12 -68 12 -204 0 -237 10 -222 -157 -218 -64
2 -119 7 -123 11 -15 18 -51 123 -45 132 3 6 27 17 53 24 49 15 63 40 26 45
-12 2 -39 -4 -60 -13 -21 -8 -41 -12 -45 -8 -6 7 -25 51 -96 231 -7 17 417 18
435 0z m250 -180 c-3 -75 -5 -83 -23 -83 -18 0 -20 8 -23 83 l-3 82 26 0 26 0
-3 -82z m120 6 c2 -54 -1 -74 -13 -84 -29 -24 -45 5 -45 80 0 73 4 82 35 78
18 -3 20 -11 23 -74z m-413 -316 c-21 -70 -25 -73 -104 -76 -41 -2 -77 1 -81
5 -4 4 1 27 12 51 l19 42 80 0 c79 0 80 0 74 -22z m375 -133 c59 -30 79 -119
38 -170 -40 -52 -63 -55 -365 -55 -316 0 -333 3 -367 73 -25 52 -15 97 30 136
l35 31 300 0 c249 0 305 -3 329 -15z"/>
<path d="M1254 1455 c-4 -9 -2 -21 4 -27 15 -15 44 -1 40 19 -4 23 -36 29 -44
8z"/>
<path d="M1494 1455 c-4 -9 -2 -21 4 -27 15 -15 44 -1 40 19 -4 23 -36 29 -44
8z"/>
<path d="M1744 1455 c-4 -9 -2 -21 4 -27 15 -15 44 -1 40 19 -4 23 -36 29 -44
8z"/>
<path d="M1080 1070 c0 -82 3 -100 15 -100 10 0 15 11 15 35 0 34 1 35 38 35
30 0 42 -6 65 -35 15 -19 34 -35 42 -35 21 0 19 10 -7 37 l-22 23 22 16 c17
11 22 25 22 58 0 23 -5 47 -12 54 -7 7 -44 12 -95 12 l-83 0 0 -100z m160 35
l0 -35 -65 0 -65 0 0 35 0 35 65 0 65 0 0 -35z"/>
<path d="M1310 1070 l0 -100 89 0 c84 0 89 1 84 20 -5 18 -14 20 -74 20 -62 0
-69 2 -69 20 0 16 8 19 57 22 46 2 59 7 61 21 3 15 -5 17 -57 17 -58 0 -61 1
-61 25 0 24 2 25 75 25 60 0 75 3 75 15 0 12 -17 15 -90 15 l-90 0 0 -100z"/>
<path d="M1532 1158 c-8 -8 -12 -45 -12 -100 0 -72 3 -88 15 -88 10 0 15 11
15 35 l0 35 64 0 c60 0 64 -2 70 -25 4 -14 4 -30 1 -35 -4 -6 1 -10 9 -10 24
0 23 185 0 194 -28 11 -150 6 -162 -6z m148 -53 l0 -35 -65 0 -65 0 0 35 0 35
65 0 65 0 0 -35z"/>
<path d="M1750 1070 l0 -100 95 0 c88 0 95 1 95 20 0 18 -7 20 -80 20 l-80 0
0 80 c0 64 -3 80 -15 80 -12 0 -15 -18 -15 -100z"/>
<path d="M1773 783 c9 -2 25 -2 35 0 9 3 1 5 -18 5 -19 0 -27 -2 -17 -5z"/>
<path d="M1933 783 c15 -2 37 -2 50 0 12 2 0 4 -28 4 -27 0 -38 -2 -22 -4z"/>
<path d="M2313 783 c9 -2 25 -2 35 0 9 3 1 5 -18 5 -19 0 -27 -2 -17 -5z"/>
<path d="M578 743 c12 -2 30 -2 40 0 9 3 -1 5 -23 4 -22 0 -30 -2 -17 -4z"/>
<path d="M698 743 c12 -2 30 -2 40 0 9 3 -1 5 -23 4 -22 0 -30 -2 -17 -4z"/>
<path d="M1778 743 c12 -2 30 -2 40 0 9 3 -1 5 -23 4 -22 0 -30 -2 -17 -4z"/>
<path d="M2318 743 c12 -2 32 -2 45 0 12 2 2 4 -23 4 -25 0 -35 -2 -22 -4z"/>
</g>
</svg>
